<?xml version="1.0" encoding="UTF-8"?>
<!DOCTYPE svg PUBLIC "-//W3C//DTD SVG 1.1//EN" "http://www.w3.org/Graphics/SVG/1.1/DTD/svg11.dtd">
<svg xmlns="http://www.w3.org/2000/svg" version="1.1" width="1600px" height="482px" style="shape-rendering:geometricPrecision; text-rendering:geometricPrecision; image-rendering:optimizeQuality; fill-rule:evenodd; clip-rule:evenodd" xmlns:xlink="http://www.w3.org/1999/xlink">
<g><path style="opacity:0.982" fill="#fefffe" d="M 98.5,-0.5 C 110.5,-0.5 122.5,-0.5 134.5,-0.5C 153.995,1.72188 171.995,8.22188 188.5,19C 206.405,34.6541 215.238,54.4874 215,78.5C 215.333,117.5 215.667,156.5 216,195.5C 217.1,205.033 220.434,213.699 226,221.5C 229.333,226.167 232.667,230.833 236,235.5C 236.79,238.634 236.457,241.634 235,244.5C 221.74,255.882 208.573,267.382 195.5,279C 189.205,282.25 183.538,281.25 178.5,276C 169.534,267.374 161.701,257.874 155,247.5C 126.06,278.697 90.7272,289.364 49,279.5C 19.8331,269.842 3.3331,249.842 -0.5,219.5C -0.5,209.5 -0.5,199.5 -0.5,189.5C 5.73042,157.92 23.7304,135.753 53.5,123C 62.6042,119.521 71.9375,116.854 81.5,115C 102.287,111.465 123.12,108.631 144,106.5C 144.667,97.1667 144.667,87.8333 144,78.5C 141.403,63.57 132.569,55.07 117.5,53C 91.4319,50.4477 75.5985,61.9477 70,87.5C 68.3546,89.6618 66.1879,90.9951 63.5,91.5C 46.1643,89.444 28.8309,87.2774 11.5,85C 9.95118,83.786 8.78451,82.286 8,80.5C 9.81032,53.0495 22.3103,31.8828 45.5,17C 62.1921,7.82445 79.8588,1.99111 98.5,-0.5 Z M 128.5,147.5 C 133.833,147.5 139.167,147.5 144.5,147.5C 144.667,159.505 144.5,171.505 144,183.5C 141.875,201.6 133.709,216.1 119.5,227C 107.758,233.868 96.0909,233.868 84.5,227C 78.1785,221.192 74.3452,214.025 73,205.5C 69.2799,176.573 81.4466,158.407 109.5,151C 115.906,149.438 122.24,148.271 128.5,147.5 Z"/></g>
<g><path style="opacity:0.984" fill="#fefffe" d="M 747.5,-0.5 C 759.833,-0.5 772.167,-0.5 784.5,-0.5C 803.75,1.5673 821.417,8.0673 837.5,19C 854.963,33.6939 863.796,52.5273 864,75.5C 864.333,115.167 864.667,154.833 865,194.5C 865.733,200.765 867.399,206.765 870,212.5C 874.751,220.337 879.751,228.004 885,235.5C 885.667,238.167 885.667,240.833 885,243.5C 872.833,254.333 860.667,265.167 848.5,276C 845.505,278.748 842.005,280.581 838,281.5C 833.995,280.581 830.495,278.748 827.5,276C 818.534,267.374 810.701,257.874 804,247.5C 771.707,281.498 733.207,290.998 688.5,276C 664.578,264.351 651.411,245.185 649,218.5C 644.08,172.146 662.913,139.979 705.5,122C 713.717,119.261 722.051,116.928 730.5,115C 751.421,111.427 772.421,108.593 793.5,106.5C 794.896,95.4154 794.396,84.4154 792,73.5C 786.438,58.9686 775.771,51.9686 760,52.5C 737.144,53.3534 723.477,65.0201 719,87.5C 717.355,89.6618 715.188,90.9951 712.5,91.5C 695.506,89.3708 678.506,87.2042 661.5,85C 657.916,83.3362 656.249,80.5029 656.5,76.5C 662.129,44.044 680.129,21.544 710.5,9C 722.719,4.8634 735.052,1.69673 747.5,-0.5 Z M 777.5,147.5 C 783.167,147.5 788.833,147.5 794.5,147.5C 794.638,159.859 794.138,172.192 793,184.5C 791.087,201.502 783.587,215.335 770.5,226C 759.091,233.019 747.424,233.685 735.5,228C 727.54,222.257 723.04,214.423 722,204.5C 718.765,176.081 730.931,158.248 758.5,151C 764.906,149.438 771.24,148.271 777.5,147.5 Z"/></g>
<g><path style="opacity:0.985" fill="#fefffe" d="M 395.5,1.5 C 418.458,-0.759946 437.625,6.57339 453,23.5C 458.433,30.6995 463.1,38.3662 467,46.5C 482.394,14.5458 507.894,-0.287508 543.5,2C 573.924,5.44382 593.757,21.6105 603,50.5C 605.082,62.237 606.249,74.0704 606.5,86C 605.706,148.495 605.206,210.995 605,273.5C 603.749,276.381 601.583,278.214 598.5,279C 580.167,279.667 561.833,279.667 543.5,279C 541,277.833 539.167,276 538,273.5C 537.824,226.144 537.324,178.811 536.5,131.5C 537.762,117.5 537.596,103.5 536,89.5C 533.475,73.9756 524.308,65.9756 508.5,65.5C 489.059,67.4394 477.893,78.1061 475,97.5C 473.699,155.476 473.032,213.476 473,271.5C 472.31,274.196 470.81,276.363 468.5,278C 449.59,279.641 430.59,279.974 411.5,279C 409.413,278.208 407.579,277.041 406,275.5C 404.976,214.869 403.976,154.203 403,93.5C 398.573,69.0294 384.406,60.5294 360.5,68C 352.819,72.0182 347.652,78.1849 345,86.5C 343.842,90.7974 342.842,95.1307 342,99.5C 341.025,158.203 340.025,216.869 339,275.5C 337.421,277.041 335.587,278.208 333.5,279C 315.167,279.667 296.833,279.667 278.5,279C 276.376,277.878 274.543,276.378 273,274.5C 271.838,230.916 271.338,187.249 271.5,143.5C 271.341,99.4422 271.841,55.4422 273,11.5C 274.762,8.73196 277.262,7.23196 280.5,7C 297.9,6.04222 315.233,6.37555 332.5,8C 334.378,9.5429 335.878,11.3762 337,13.5C 337.333,24.5 337.667,35.5 338,46.5C 348.309,20.0091 367.475,5.00909 395.5,1.5 Z"/></g>
<g><path style="opacity:0.983" fill="#fefffe" d="M 1236.5,1.5 C 1291.15,-0.000293957 1328.31,24.6664 1348,75.5C 1363.95,122.443 1363.28,169.11 1346,215.5C 1319.25,272.325 1275.09,293.825 1213.5,280C 1181.51,268.681 1159.35,247.181 1147,215.5C 1131.06,170.94 1129.73,125.94 1143,80.5C 1151.91,52.8129 1168.41,30.9796 1192.5,15C 1206.34,7.32773 1221.01,2.82773 1236.5,1.5 Z M 1238.5,54.5 C 1257.17,51.2462 1270.01,58.2462 1277,75.5C 1281.9,91.1151 1284.56,107.115 1285,123.5C 1285.82,142.19 1285.48,160.856 1284,179.5C 1282.77,193.089 1278.77,205.756 1272,217.5C 1263.05,229.596 1251.22,233.763 1236.5,230C 1227.27,225.773 1220.77,218.94 1217,209.5C 1210.58,190.035 1207.58,170.035 1208,149.5C 1206.51,127.574 1208.17,105.908 1213,84.5C 1216.16,69.7801 1224.66,59.7801 1238.5,54.5 Z"/></g>
<g><path style="opacity:0.986" fill="#fefffe" d="M 1599.5,77.5 C 1599.5,142.833 1599.5,208.167 1599.5,273.5C 1597.81,276.677 1595.15,278.51 1591.5,279C 1573.83,279.667 1556.17,279.667 1538.5,279C 1535.43,278.261 1533.26,276.428 1532,273.5C 1531.84,215.159 1531.17,156.826 1530,98.5C 1529.7,85.727 1524.53,75.5603 1514.5,68C 1499.11,61.9061 1486.27,65.4061 1476,78.5C 1469.31,90.238 1465.65,102.905 1465,116.5C 1464.67,168.5 1464.33,220.5 1464,272.5C 1463.23,274.939 1461.73,276.773 1459.5,278C 1440.59,279.641 1421.59,279.974 1402.5,279C 1399.33,277.833 1397.17,275.667 1396,272.5C 1395.33,186.167 1395.33,99.8333 1396,13.5C 1397.39,10.0552 1399.89,7.88858 1403.5,7C 1419.83,6.33333 1436.17,6.33333 1452.5,7C 1456.02,7.50405 1458.52,9.33738 1460,12.5C 1460.33,25.8333 1460.67,39.1667 1461,52.5C 1479.18,7.33183 1511.68,-7.83484 1558.5,7C 1578.88,17.047 1591.38,33.2137 1596,55.5C 1597.32,62.9546 1598.49,70.288 1599.5,77.5 Z"/></g>
<g><path style="opacity:0.984" fill="#fefffe" d="M 929.5,6.5 C 986.501,6.33334 1043.5,6.50001 1100.5,7C 1102.29,7.78451 1103.79,8.95118 1105,10.5C 1106.59,23.1097 1106.92,35.7763 1106,48.5C 1105.23,52.0487 1103.89,55.382 1102,58.5C 1071.13,101.738 1040.63,145.238 1010.5,189C 1037.72,188.815 1064.06,193.482 1089.5,203C 1096.42,205.706 1102.59,209.54 1108,214.5C 1109.75,217.246 1110.75,220.246 1111,223.5C 1111.67,236.833 1111.67,250.167 1111,263.5C 1109.94,270.11 1106.11,272.943 1099.5,272C 1041.75,243.591 984.087,243.591 926.5,272C 922.207,273.202 918.707,272.035 916,268.5C 914.376,251.567 914.043,234.567 915,217.5C 915.384,213.347 916.384,209.347 918,205.5C 950.797,157.405 983.963,109.572 1017.5,62C 987.414,61.9846 957.414,61.318 927.5,60C 925.232,58.4423 924.066,56.2756 924,53.5C 923.07,39.1113 923.403,24.778 925,10.5C 926.397,8.92975 927.897,7.59641 929.5,6.5 Z"/></g>
<g><path style="opacity:0.965" fill="#fe9900" d="M 1003.5,289.5 C 1023.94,288.702 1043.94,291.202 1063.5,297C 1066.25,298.123 1068.75,299.623 1071,301.5C 1073.1,307.118 1074.27,312.951 1074.5,319C 1072.1,357.879 1059.6,393.046 1037,424.5C 1030.87,431.636 1024.37,438.469 1017.5,445C 1008.54,449.785 1004.71,447.285 1006,437.5C 1016.13,413.446 1024.46,388.78 1031,363.5C 1033.92,353.435 1033.92,343.435 1031,333.5C 1027.32,329.577 1022.82,327.077 1017.5,326C 999.226,323.06 980.893,322.727 962.5,325C 948.428,326.04 934.428,327.54 920.5,329.5C 914.56,327.836 913.06,324.17 916,318.5C 932.763,305.9 951.596,297.734 972.5,294C 982.921,292.075 993.254,290.575 1003.5,289.5 Z"/></g>
<g><path style="opacity:0.978" fill="#fe9900" d="M 680.5,481.5 C 658.5,481.5 636.5,481.5 614.5,481.5C 483.47,474.001 366.137,430.501 262.5,351C 250.038,340.874 237.872,330.374 226,319.5C 222.756,308.743 226.59,304.91 237.5,308C 411.479,405.668 597.146,439.002 794.5,408C 859.292,396.734 921.959,378.401 982.5,353C 997.005,352.545 1001.84,359.045 997,372.5C 979.525,386.963 960.691,399.463 940.5,410C 858.773,452.08 772.106,475.913 680.5,481.5 Z"/></g>
</svg>
